 <svg version="1.0" xmlns="http://www.w3.org/2000/svg" width="700.000000pt" height="1090.000000pt" viewBox="0 0 700.000000 1090.000000" preserveAspectRatio="xMidYMid meet">
<metadata>
Created by potrace 1.12, written by Peter Selinger 2001-2015
</metadata>
<g transform="translate(0.000000,1090.000000) scale(0.100000,-0.100000)" fill="#000000" stroke="none">
<path d="M4077 7598 c-33 -55 -19 -139 64 -378 17 -47 39 -112 50 -145 11 -33
33 -94 49 -135 16 -41 35 -100 41 -130 6 -30 29 -97 50 -149 43 -105 114 -324
125 -386 7 -42 40 -114 79 -175 14 -21 28 -64 34 -108 8 -49 20 -86 38 -114
19 -28 29 -60 34 -108 5 -47 18 -89 43 -139 20 -39 41 -95 47 -123 6 -29 26
-91 44 -138 18 -47 50 -134 70 -194 19 -59 42 -120 49 -135 7 -14 30 -84 50
-156 20 -71 54 -179 77 -240 23 -60 57 -157 76 -215 19 -58 59 -172 90 -255
83 -226 96 -279 82 -340 -6 -27 -18 -63 -26 -78 -21 -42 -13 -60 32 -73 l40
-12 -47 -1 c-27 -1 -48 -5 -48 -11 0 -6 27 -10 62 -10 98 0 188 55 188 115 0
12 -13 39 -29 59 -35 43 -47 79 -55 159 -7 66 -31 121 -48 111 -6 -4 -8 -3 -5
3 3 5 -1 22 -9 37 -7 16 -14 38 -14 49 0 39 -41 168 -66 204 -13 20 -24 41
-24 47 -3 78 -22 151 -53 203 -25 40 -38 75 -42 113 -10 85 -12 94 -44 134
-20 25 -32 54 -36 84 -12 104 -26 147 -55 177 -25 26 -31 42 -35 95 -10 112
-15 128 -50 170 -19 23 -37 57 -40 78 -14 86 -28 127 -49 147 -17 16 -27 42
-36 96 -16 98 -28 129 -51 129 -27 0 -42 36 -35 82 5 28 0 57 -15 101 -27 74
-28 75 -38 58 -11 -16 -29 34 -35 94 -5 58 -27 157 -38 179 -8 15 -12 16 -19
5 -11 -19 -29 31 -29 83 0 57 -35 169 -72 228 -25 40 -32 65 -38 130 -6 69
-12 87 -39 126 -25 34 -35 61 -43 117 -10 73 -19 98 -63 176 -14 24 -25 58
-25 75 0 57 -27 144 -54 176 -15 19 -26 44 -26 61 0 17 -5 39 -10 50 -15 26
-56 25 -73 -3z"></path>
<path d="M3478 7303 c-29 -33 -58 -102 -73 -173 -8 -39 -24 -87 -34 -108 -11
-21 -38 -101 -62 -178 -23 -76 -56 -177 -74 -224 -18 -47 -38 -112 -45 -145
-7 -33 -21 -76 -31 -96 -19 -37 -75 -204 -143 -424 -20 -66 -78 -241 -127
-390 -109 -326 -136 -429 -119 -450 17 -21 29 -19 96 15 81 40 122 84 133 143
5 27 23 71 41 100 25 39 35 70 42 127 7 60 17 88 48 141 29 47 40 76 40 105 0
84 20 157 54 195 30 32 33 43 38 116 6 77 12 95 59 171 13 19 27 69 35 123 9
65 22 105 44 144 23 41 33 74 41 142 9 74 15 93 40 123 32 38 42 58 89 167 39
93 39 145 -1 270 -41 128 -56 146 -91 106z"></path>
<path d="M3650 6740 c0 -5 5 -10 10 -10 6 0 10 5 10 10 0 6 -4 10 -10 10 -5 0
-10 -4 -10 -10z"></path>
<path d="M3660 6690 c0 -5 5 -10 10 -10 6 0 10 5 10 10 0 6 -4 10 -10 10 -5 0
-10 -4 -10 -10z"></path>
<path d="M3733 6469 c5 -56 27 -102 42 -87 9 8 -26 148 -37 148 -7 0 -9 -22
-5 -61z"></path>
<path d="M3822 6205 c4 -61 19 -97 34 -82 10 10 -16 147 -28 147 -6 0 -9 -25
-6 -65z"></path>
<path d="M3913 5940 c5 -59 21 -95 37 -85 5 3 5 20 0 38 -4 17 -11 49 -15 70
-10 63 -28 45 -22 -23z"></path>
<path d="M4002 5655 c4 -52 20 -86 34 -73 9 9 -17 128 -29 128 -5 0 -8 -22 -5
-55z"></path>
<path d="M4090 5397 c0 -42 21 -89 33 -71 7 13 -14 114 -24 114 -5 0 -9 -19
-9 -43z"></path>
<path d="M2632 4635 c-18 -20 -39 -63 -52 -107 -12 -40 -57 -181 -100 -313
-43 -132 -83 -265 -89 -295 -6 -30 -18 -91 -27 -134 -15 -73 -15 -81 0 -91 21
-16 10 -25 -31 -25 -18 0 -33 -4 -33 -10 0 -6 29 -10 66 -10 60 0 68 3 96 30
16 17 36 30 43 30 30 0 55 51 55 112 0 60 13 96 55 153 16 21 26 55 34 112 8
67 17 93 45 135 29 44 36 66 41 128 5 57 15 91 41 142 43 86 43 108 -1 147
-51 45 -102 43 -143 -4z"></path>
<path d="M4356 4488 c7 -33 29 -66 39 -57 8 9 -20 82 -33 87 -8 2 -10 -7 -6
-30z"></path>
<path d="M4443 4250 c5 -58 21 -95 37 -85 10 6 -21 145 -33 145 -6 0 -8 -24
-4 -60z"></path>
<path d="M4533 3983 c3 -31 13 -63 21 -72 20 -19 21 -9 4 71 -15 75 -33 76
-25 1z"></path>
<path d="M4620 3776 c0 -14 21 -58 26 -54 8 8 -7 58 -17 58 -5 0 -9 -2 -9 -4z"></path>
<path d="M1790 3707 c0 -7 7 -23 16 -35 12 -18 25 -22 65 -22 27 0 49 5 49 10
0 6 -18 10 -40 10 -31 0 -43 5 -56 25 -18 27 -34 33 -34 12z"></path>
<path d="M4740 3660 c0 -5 16 -10 35 -10 19 0 35 5 35 10 0 6 -16 10 -35 10
-19 0 -35 -4 -35 -10z"></path>
<path d="M1970 3650 c0 -6 27 -10 60 -10 33 0 60 4 60 10 0 6 -27 10 -60 10
-33 0 -60 -4 -60 -10z"></path>
<path d="M2200 3650 c0 -5 14 -10 30 -10 17 0 30 5 30 10 0 6 -13 10 -30 10
-16 0 -30 -4 -30 -10z"></path>
<path d="M5130 3650 c0 -5 16 -10 35 -10 19 0 35 5 35 10 0 6 -16 10 -35 10
-19 0 -35 -4 -35 -10z"></path>
</g>
</svg>